<svg width="35" height="35" viewBox="0 0 35 35" fill="none" xmlns="http://www.w3.org/2000/svg">
<circle cx="17.5" cy="17.5" r="17" fill="#F6F2ED" stroke="#5D4434"/>
<path d="M18.1627 18.2561H25V11.4214C24.9893 9.90833 24.1053 9.5444 23.036 10.6149L21.4973 12.1586C20.1415 11.0939 18.4667 10.5164 16.7427 10.5189C14.676 10.5189 12.7307 11.3241 11.2707 12.7865C10.5483 13.502 9.97554 14.3541 9.58571 15.2932C9.19589 16.2322 8.9968 17.2394 9.00004 18.2561C9.00004 20.3264 9.80537 22.2713 11.268 23.7311C11.9852 24.4524 12.8384 25.0243 13.7781 25.4137C14.7178 25.8032 15.7254 26.0024 16.7427 26C18.8093 26 20.7547 25.1935 22.2173 23.7297C22.6138 23.3325 22.9605 22.9037 23.2573 22.4433C23.4792 22.0979 23.5548 21.6785 23.4674 21.2774C23.38 20.8762 23.1368 20.5262 22.7913 20.3044C22.4459 20.0825 22.0264 20.007 21.6252 20.0943C21.224 20.1817 20.8739 20.4249 20.652 20.7703C20.4747 21.0462 20.2627 21.3035 20.028 21.5435C19.5972 21.9756 19.0851 22.3181 18.5212 22.5515C17.9574 22.7849 17.3529 22.9044 16.7427 22.9032C16.1323 22.9051 15.5277 22.7859 14.9637 22.5525C14.3998 22.3191 13.8878 21.9761 13.4574 21.5435C13.0251 21.1125 12.6823 20.6003 12.4489 20.0363C12.2155 19.4724 12.096 18.8678 12.0974 18.2574C12.0974 17.0177 12.58 15.8512 13.4574 14.9767C13.8881 14.5444 14.4002 14.2016 14.964 13.968C15.5279 13.7344 16.1324 13.6146 16.7427 13.6156C17.66 13.6156 18.5373 13.8836 19.288 14.3782L17.3574 16.3125C16.2867 17.3816 16.6507 18.2561 18.1627 18.2561Z" fill="#5D4434"/>
</svg>
